Muli-Medium-Italic.ufo
<glyph name="exclam" format="1">
  <advance width="590"/>
  <unicode hex="0021"/>
  <outline>
    <contour>
      <point x="188" y="-15" type="line"/>
      <point x="208" y="211" type="line"/>
      <point x="446" y="211" type="line"/>
      <point x="426" y="-15" type="line"/>
    </contour>
    <contour>
      <point x="287" y="377" type="line"/>
      <point x="325" y="1456" type="line"/>
      <point x="550" y="1456" type="line"/>
      <point x="398" y="377" type="line"/>
    </contour>
  </outline>
</glyph>
<glyph name="quotedbl" format="1">
  <advance width="784"/>
  <unicode hex="0022"/>
  <outline>
    <contour>
      <point x="247" y="924" type="line"/>
      <point x="258" y="1456" type="line"/>
      <point x="458" y="1456" type="line"/>
      <point x="346" y="924" type="line"/>
    </contour>
    <contour>
      <point x="562" y="924" type="line"/>
      <point x="573" y="1456" type="line"/>
      <point x="773" y="1456" type="line"/>
      <point x="661" y="924" type="line"/>
    </contour>
  </outline>
</glyph>
<glyph name="dollar" format="1">
  <advance width="1200"/>
  <unicode hex="0024"/>
  <outline>
    <component base="S"/>
    <contour>
      <point x="567" y="-187" type="line"/>
      <point x="726" y="1619" type="line"/>
      <point x="814" y="1619" type="line"/>
      <point x="656" y="-187" type="line"/>
    </contour>
  </outline>
</glyph>
<glyph name="percent" format="1">
  <advance width="1793"/>
  <unicode hex="0025"/>
  <outline>
    <contour>
      <point x="525" y="845" type="curve" smooth="yes"/>
      <point x="394" y="845"/>
      <point x="355" y="958"/>
      <point x="367" y="1097" type="curve" smooth="yes"/>
      <point x="378" y="1228"/>
      <point x="435" y="1352"/>
      <point x="570" y="1352" type="curve" smooth="yes"/>
      <point x="703" y="1352"/>
      <point x="740" y="1236"/>
      <point x="728" y="1100" type="curve" smooth="yes"/>
      <point x="716" y="965"/>
      <point x="656" y="845"/>
    </contour>
    <contour>
      <point x="512" y="719" type="curve" smooth="yes"/>
      <point x="733" y="719"/>
      <point x="873" y="886"/>
      <point x="892" y="1099" type="curve" smooth="yes"/>
      <point x="911" y="1314"/>
      <point x="807" y="1478"/>
      <point x="582" y="1478" type="curve" smooth="yes"/>
      <point x="360" y="1478"/>
      <point x="221" y="1310"/>
      <point x="202" y="1097" type="curve" smooth="yes"/>
      <point x="183" y="883"/>
      <point x="289" y="719"/>
    </contour>
    <contour>
      <point x="388" y="0" type="line"/>
      <point x="550" y="0" type="line"/>
      <point x="1532" y="1456" type="line"/>
      <point x="1369" y="1456" type="line"/>
    </contour>
    <contour>
      <point x="1359" y="101" type="curve" smooth="yes"/>
      <point x="1228" y="101"/>
      <point x="1188" y="214"/>
      <point x="1200" y="352" type="curve" smooth="yes"/>
      <point x="1211" y="483"/>
      <point x="1269" y="609"/>
      <point x="1405" y="609" type="curve" smooth="yes"/>
      <point x="1538" y="609"/>
      <point x="1573" y="493"/>
      <point x="1561" y="357" type="curve" smooth="yes"/>
      <point x="1549" y="222"/>
      <point x="1491" y="101"/>
    </contour>
    <contour>
      <point x="1346" y="-25" type="curve" smooth="yes"/>
      <point x="1567" y="-25"/>
      <point x="1706" y="143"/>
      <point x="1725" y="356" type="curve" smooth="yes"/>
      <point x="1744" y="571"/>
      <point x="1641" y="735"/>
      <point x="1416" y="735" type="curve" smooth="yes"/>
      <point x="1194" y="735"/>
      <point x="1055" y="566"/>
      <point x="1036" y="353" type="curve" smooth="yes"/>
      <point x="1017" y="140"/>
      <point x="1124" y="-25"/>
    </contour>
  </outline>
</glyph>
<glyph name="quotesingle" format="1">
  <advance width="554"/>
  <unicode hex="0027"/>
  <outline>
    <contour>
      <point x="289" y="981" type="line"/>
      <point x="293" y="1456" type="line"/>
      <point x="505" y="1456" type="line"/>
      <point x="440" y="981" type="line"/>
    </contour>
  </outline>
</glyph>
<glyph name="parenleft" format="1">
  <advance width="629"/>
  <unicode hex="0028"/>
  <outline>
    <contour>
      <point x="382" y="-189" type="line"/>
      <point x="246" y="50"/>
      <point x="148" y="350"/>
      <point x="174" y="650" type="curve" smooth="yes"/>
      <point x="202" y="964"/>
      <point x="336" y="1242"/>
      <point x="526" y="1506" type="curve"/>
      <point x="703" y="1506" type="line"/>
      <point x="511" y="1239"/>
      <point x="389" y="945"/>
      <point x="363" y="651" type="curve" smooth="yes"/>
      <point x="339" y="378"/>
      <point x="418" y="65"/>
      <point x="555" y="-189" type="curve"/>
    </contour>
  </outline>
</glyph>
<glyph name="comma" format="1">
  <advance width="517"/>
  <unicode hex="002C"/>
  <outline>
    <contour>
      <point x="52" y="-285" type="line"/>
      <point x="215" y="244" type="line"/>
      <point x="418" y="244" type="line"/>
      <point x="207" y="-285" type="line"/>
    </contour>
  </outline>
</glyph>
<glyph name="two" format="1">
  <advance width="1230"/>
  <unicode hex="0032"/>
  <outline>
    <contour>
      <point x="182" y="0" type="line"/>
      <point x="196" y="158" type="line"/>
      <point x="690.103" y="653.8" type="line" smooth="yes"/>
      <point x="846.743" y="809.723"/>
      <point x="963.563" y="927.681"/>
      <point x="963.563" y="1106.01" type="curve" smooth="yes"/>
      <point x="963.563" y="1250.84"/>
      <point x="872.036" y="1314"/>
      <point x="726" y="1314" type="curve" smooth="yes"/>
      <point x="577" y="1314"/>
      <point x="437" y="1244"/>
      <point x="356" y="1109" type="curve"/>
      <point x="251" y="1222" type="line"/>
      <point x="341" y="1388"/>
      <point x="527" y="1482"/>
      <point x="742" y="1482" type="curve" smooth="yes"/>
      <point x="990.49" y="1482"/>
      <point x="1161.02" y="1361.51"/>
      <point x="1161.02" y="1123.87" type="curve" smooth="yes"/>
      <point x="1161.02" y="879.23"/>
      <point x="996.185" y="707.584"/>
      <point x="808.501" y="521.8" type="curve" smooth="yes"/>
      <point x="451" y="164" type="line"/>
      <point x="1083" y="164" type="line"/>
      <point x="1068" y="0" type="line"/>
    </contour>
  </outline>
</glyph>
<glyph name="five" format="1">
  <advance width="1230"/>
  <unicode hex="0035"/>
  <outline>
    <contour>
      <point x="1164" y="525" type="curve" smooth="yes"/>
      <point x="1164" y="200"/>
      <point x="935" y="-23"/>
      <point x="619" y="-23" type="curve" smooth="yes"/>
      <point x="458" y="-23"/>
      <point x="299" y="36"/>
      <point x="189" y="159" type="curve"/>
      <point x="298" y="296" type="line"/>
      <point x="387" y="186"/>
      <point x="512" y="146"/>
      <point x="631" y="146" type="curve" smooth="yes"/>
      <point x="834" y="146"/>
      <point x="961" y="303"/>
      <point x="961" y="511" type="curve" smooth="yes"/>
      <point x="961" y="709"/>
      <point x="837" y="806"/>
      <point x="707" y="806" type="curve" smooth="yes"/>
      <point x="613" y="806"/>
      <point x="523" y="764"/>
      <point x="467" y="657" type="curve"/>
      <point x="295" y="690" type="line"/>
      <point x="378" y="1456" type="line"/>
      <point x="1164" y="1456" type="line"/>
      <point x="1150" y="1287" type="line"/>
      <point x="545" y="1287" type="line"/>
      <point x="477" y="851" type="line"/>
      <point x="541" y="928"/>
      <point x="646" y="958"/>
      <point x="742" y="958" type="curve" smooth="yes"/>
      <point x="1013" y="958"/>
      <point x="1164" y="771"/>
    </contour>
  </outline>
</glyph>
<glyph name="six" format="1">
  <advance width="1230"/>
  <unicode hex="0036"/>
  <outline>
    <contour>
      <point x="668" y="-23" type="curve" smooth="yes"/>
      <point x="316" y="-23"/>
      <point x="176" y="268"/>
      <point x="213" y="694" type="curve" smooth="yes"/>
      <point x="251" y="1126"/>
      <point x="471" y="1483"/>
      <point x="852" y="1483" type="curve" smooth="yes"/>
      <point x="997" y="1483"/>
      <point x="1112" y="1436"/>
      <point x="1186" y="1366" type="curve"/>
      <point x="1106" y="1222" type="line"/>
      <point x="1038" y="1280"/>
      <point x="946" y="1313"/>
      <point x="838" y="1313" type="curve" smooth="yes"/>
      <point x="607" y="1313"/>
      <point x="476" y="1087"/>
      <point x="433" y="823" type="curve" smooth="yes"/>
      <point x="429" y="803"/>
      <point x="427" y="782"/>
      <point x="425" y="761" type="curve"/>
      <point x="502" y="865"/>
      <point x="617" y="942"/>
      <point x="788" y="942" type="curve" smooth="yes"/>
      <point x="1046" y="942"/>
      <point x="1217" y="758"/>
      <point x="1192" y="468" type="curve" smooth="yes"/>
      <point x="1168" y="189"/>
      <point x="966" y="-23"/>
    </contour>
    <contour>
      <point x="685" y="146" type="curve" smooth="yes"/>
      <point x="859" y="146"/>
      <point x="972" y="282"/>
      <point x="988" y="463" type="curve" smooth="yes"/>
      <point x="1004" y="642"/>
      <point x="926" y="782"/>
      <point x="739" y="782" type="curve" smooth="yes"/>
      <point x="566" y="782"/>
      <point x="433" y="664"/>
      <point x="419" y="499" type="curve" smooth="yes"/>
      <point x="400" y="279"/>
      <point x="499" y="146"/>
    </contour>
  </outline>
</glyph>
<glyph name="nine" format="1">
  <advance width="1230"/>
  <unicode hex="0039"/>
  <outline>
    <contour>
      <point x="562" y="-24" type="curve" smooth="yes"/>
      <point x="449" y="-24"/>
      <point x="326" y="11"/>
      <point x="199" y="78" type="curve"/>
      <point x="281" y="233" type="line"/>
      <point x="380" y="175"/>
      <point x="475" y="146"/>
      <point x="562" y="146" type="curve" smooth="yes"/>
      <point x="768" y="146"/>
      <point x="929" y="311"/>
      <point x="959" y="648" type="curve"/>
      <point x="962" y="701" type="line"/>
      <point x="887" y="584"/>
      <point x="772" y="536"/>
      <point x="631" y="536" type="curve" smooth="yes"/>
      <point x="357" y="536"/>
      <point x="206" y="727"/>
      <point x="230" y="1000" type="curve" smooth="yes"/>
      <point x="254" y="1274"/>
      <point x="452" y="1483"/>
      <point x="748" y="1483" type="curve" smooth="yes"/>
      <point x="1065" y="1483"/>
      <point x="1211" y="1230"/>
      <point x="1171" y="773" type="curve" smooth="yes"/>
      <point x="1124" y="234"/>
      <point x="870" y="-24"/>
    </contour>
    <contour>
      <point x="433" y="1006" type="curve" smooth="yes"/>
      <point x="418" y="833"/>
      <point x="482" y="700"/>
      <point x="670" y="700" type="curve" smooth="yes"/>
      <point x="834" y="700"/>
      <point x="963" y="810"/>
      <point x="979" y="999" type="curve" smooth="yes"/>
      <point x="993" y="1161"/>
      <point x="916" y="1313"/>
      <point x="731" y="1313" type="curve" smooth="yes"/>
      <point x="561" y="1313"/>
      <point x="448" y="1184"/>
    </contour>
  </outline>
</glyph>
<glyph name="semicolon" format="1">
  <advance width="543"/>
  <unicode hex="003B"/>
  <outline>
    <contour>
      <point x="51" y="-250" type="line"/>
      <point x="199" y="226" type="line"/>
      <point x="415" y="226" type="line"/>
      <point x="207" y="-250" type="line"/>
    </contour>
    <contour>
      <point x="223" y="855" type="line"/>
      <point x="243" y="1083" type="line"/>
      <point x="471" y="1083" type="line"/>
      <point x="451" y="855" type="line"/>
    </contour>
  </outline>
</glyph>
<glyph name="less" format="1">
  <advance width="1274"/>
  <unicode hex="003C"/>
  <outline>
    <contour>
      <point x="1079" y="45" type="line"/>
      <point x="180" y="525" type="line"/>
      <point x="188" y="622" type="line"/>
      <point x="1176" y="1082" type="line"/>
      <point x="1160" y="905" type="line"/>
      <point x="416" y="570" type="line"/>
      <point x="1095" y="219" type="line"/>
    </contour>
  </outline>
</glyph>
<glyph name="equal" format="1">
  <advance width="1275"/>
  <unicode hex="003D"/>
  <outline>
    <contour>
      <point x="201" y="674" type="line"/>
      <point x="215" y="831" type="line"/>
      <point x="1193" y="831" type="line"/>
      <point x="1179" y="674" type="line"/>
    </contour>
    <contour>
      <point x="167" y="277" type="line"/>
      <point x="181" y="434" type="line"/>
      <point x="1159" y="434" type="line"/>
      <point x="1146" y="277" type="line"/>
    </contour>
  </outline>
</glyph>
<glyph name="question" format="1">
  <advance width="1057"/>
  <unicode hex="003F"/>
  <outline>
    <contour>
      <point x="392" y="377" type="curve"/>
      <point x="560" y="377" type="line"/>
      <point x="561" y="384"/>
      <point x="569" y="484"/>
      <point x="570" y="490" type="curve" smooth="yes"/>
      <point x="593" y="748"/>
      <point x="998" y="850"/>
      <point x="1022" y="1130" type="curve" smooth="yes"/>
      <point x="1042" y="1365"/>
      <point x="866" y="1480"/>
      <point x="625" y="1480" type="curve" smooth="yes"/>
      <point x="533" y="1480"/>
      <point x="423" y="1460"/>
      <point x="316" y="1412" type="curve"/>
      <point x="302" y="1242" type="line"/>
      <point x="394" y="1288"/>
      <point x="494" y="1315"/>
      <point x="587" y="1315" type="curve" smooth="yes"/>
      <point x="724" y="1315"/>
      <point x="839" y="1260"/>
      <point x="827" y="1122" type="curve" smooth="yes"/>
      <point x="807" y="895"/>
      <point x="422" y="784"/>
      <point x="400" y="535" type="curve" smooth="yes"/>
      <point x="397" y="500"/>
      <point x="392" y="377"/>
    </contour>
    <contour>
      <point x="332" y="-7" type="line"/>
      <point x="571" y="-7" type="line"/>
      <point x="591" y="222" type="line"/>
      <point x="352" y="222" type="line"/>
    </contour>
  </outline>
</glyph>
<glyph name="H" format="1">
  <advance width="1533"/>
  <unicode hex="0048"/>
  <outline>
    <contour>
      <point x="189" y="0" type="line"/>
      <point x="317" y="1456" type="line"/>
      <point x="514" y="1456" type="line"/>
      <point x="460" y="832" type="line"/>
      <point x="1220" y="832" type="line"/>
      <point x="1275" y="1456" type="line"/>
      <point x="1471" y="1456" type="line"/>
      <point x="1343" y="0" type="line"/>
      <point x="1148" y="0" type="line"/>
      <point x="1206" y="663" type="line"/>
      <point x="446" y="663" type="line"/>
      <point x="388" y="0" type="line"/>
    </contour>
  </outline>
</glyph>
<glyph name="J" format="1">
  <advance width="719"/>
  <unicode hex="004A"/>
  <outline>
    <contour>
      <point x="158" y="-343" type="curve" smooth="yes"/>
      <point x="54" y="-343"/>
      <point x="-44" y="-313"/>
      <point x="-91" y="-295" type="curve"/>
      <point x="-49" y="-138" type="line"/>
      <point x="-12" y="-150"/>
      <point x="62" y="-175"/>
      <point x="146" y="-175" type="curve" smooth="yes"/>
      <point x="287" y="-175"/>
      <point x="325" y="-78"/>
      <point x="341" y="107" type="curve" smooth="yes"/>
      <point x="458" y="1456" type="line"/>
      <point x="658" y="1456" type="line"/>
      <point x="539" y="105" type="line" smooth="yes"/>
      <point x="513" y="-193"/>
      <point x="383" y="-343"/>
    </contour>
  </outline>
</glyph>
<glyph name="K" format="1">
  <advance width="1286"/>
  <unicode hex="004B"/>
  <outline>
    <contour>
      <point x="189" y="0" type="line"/>
      <point x="317" y="1456" type="line"/>
      <point x="514" y="1456" type="line"/>
      <point x="456" y="798" type="line"/>
      <point x="1130" y="1456" type="line"/>
      <point x="1377" y="1456" type="line"/>
      <point x="652" y="748" type="line"/>
      <point x="1297" y="0" type="line"/>
      <point x="1037" y="0" type="line"/>
      <point x="448" y="685" type="line"/>
      <point x="387" y="0" type="line"/>
    </contour>
  </outline>
</glyph>
<glyph name="L" format="1">
  <advance width="1098"/>
  <unicode hex="004C"/>
  <outline>
    <contour>
      <point x="187" y="0" type="line"/>
      <point x="315" y="1456" type="line"/>
      <point x="512" y="1456" type="line"/>
      <point x="399" y="169" type="line"/>
      <point x="1075" y="169" type="line"/>
      <point x="1060" y="0" type="line"/>
    </contour>
  </outline>
</glyph>
<glyph name="M" format="1">
  <advance width="1907"/>
  <unicode hex="004D"/>
  <outline>
    <contour>
      <point x="189" y="0" type="line"/>
      <point x="317" y="1456" type="line"/>
      <point x="555" y="1456" type="line"/>
      <point x="904" y="482" type="line"/>
      <point x="979" y="275" type="line"/>
      <point x="1091" y="487" type="line"/>
      <point x="1614" y="1456" type="line"/>
      <point x="1845" y="1456" type="line"/>
      <point x="1717" y="0" type="line"/>
      <point x="1528" y="0" type="line"/>
      <point x="1629" y="1130" type="line"/>
      <point x="1537" y="959" type="line"/>
      <point x="1026" y="0" type="line"/>
      <point x="886" y="0" type="line"/>
      <point x="538" y="980" type="line"/>
      <point x="483" y="1145" type="line"/>
      <point x="382" y="0" type="line"/>
    </contour>
  </outline>
</glyph>
<glyph name="P" format="1">
  <advance width="1261"/>
  <unicode hex="0050"/>
  <outline>
    <contour>
      <point x="189" y="0" type="line"/>
      <point x="317" y="1456" type="line"/>
      <point x="698" y="1456" type="line" smooth="yes"/>
      <point x="1039" y="1456"/>
      <point x="1312" y="1421"/>
      <point x="1280" y="1056" type="curve" smooth="yes"/>
      <point x="1253" y="748"/>
      <point x="1019" y="655"/>
      <point x="691" y="655" type="curve" smooth="yes"/>
      <point x="444" y="655" type="line"/>
      <point x="389" y="0" type="line"/>
    </contour>
    <contour>
      <point x="460" y="823" type="line"/>
      <point x="720" y="823" type="line" smooth="yes"/>
      <point x="921" y="823"/>
      <point x="1061" y="869"/>
      <point x="1077" y="1054" type="curve" smooth="yes"/>
      <point x="1096" y="1274"/>
      <point x="941" y="1287"/>
      <point x="714" y="1287" type="curve" smooth="yes"/>
      <point x="500" y="1287" type="line"/>
    </contour>
  </outline>
</glyph>
<glyph name="Q" format="1">
  <advance width="1628"/>
  <unicode hex="0051"/>
  <outline>
    <component base="O"/>
    <contour>
      <point x="1142" y="-430" type="line"/>
      <point x="1142" y="-430"/>
      <point x="960" y="-243"/>
      <point x="867" y="-9" type="curve"/>
      <point x="1052" y="25" type="line"/>
      <point x="1122" y="-152"/>
      <point x="1273" y="-302"/>
      <point x="1273" y="-302" type="curve"/>
    </contour>
  </outline>
</glyph>
<glyph name="R" format="1">
  <advance width="1341"/>
  <unicode hex="0052"/>
  <outline>
    <contour>
      <point x="189" y="0" type="line"/>
      <point x="317" y="1456" type="line"/>
      <point x="708" y="1456" type="line" smooth="yes"/>
      <point x="947" y="1456"/>
      <point x="1285" y="1436"/>
      <point x="1251" y="1061" type="curve" smooth="yes"/>
      <point x="1235" y="887"/>
      <point x="1156" y="754"/>
      <point x="956" y="699" type="curve"/>
      <point x="956" y="699"/>
      <point x="1071" y="665"/>
      <point x="1146" y="412" type="curve"/>
      <point x="1271" y="0" type="line"/>
      <point x="1059" y="0" type="line"/>
      <point x="934" y="420" type="line" smooth="yes"/>
      <point x="884" y="589"/>
      <point x="852" y="642"/>
      <point x="688" y="642" type="curve" smooth="yes"/>
      <point x="444" y="642" type="line"/>
      <point x="388" y="0" type="line"/>
    </contour>
    <contour>
      <point x="458" y="809" type="line"/>
      <point x="721" y="809" type="line" smooth="yes"/>
      <point x="891" y="809"/>
      <point x="1029" y="861"/>
      <point x="1046" y="1053" type="curve" smooth="yes"/>
      <point x="1063" y="1241"/>
      <point x="962" y="1287"/>
      <point x="768" y="1287" type="curve" smooth="yes"/>
      <point x="500" y="1287" type="line"/>
    </contour>
  </outline>
</glyph>
<glyph name="S" format="1">
  <advance width="1221"/>
  <unicode hex="0053"/>
  <outline>
    <contour>
      <point x="617" y="-23" type="curve" smooth="yes"/>
      <point x="307" y="-23"/>
      <point x="143" y="142"/>
      <point x="143" y="142" type="curve"/>
      <point x="244" y="287" type="line"/>
      <point x="244" y="287"/>
      <point x="412" y="146"/>
      <point x="627" y="146" type="curve" smooth="yes"/>
      <point x="823" y="146"/>
      <point x="920" y="231"/>
      <point x="933" y="381" type="curve" smooth="yes"/>
      <point x="947" y="536"/>
      <point x="826" y="597"/>
      <point x="599" y="677" type="curve" smooth="yes"/>
      <point x="379" y="755"/>
      <point x="209" y="857"/>
      <point x="231" y="1099" type="curve"/>
      <point x="253" y="1357"/>
      <point x="478" y="1483"/>
      <point x="749" y="1483" type="curve" smooth="yes"/>
      <point x="1067" y="1483"/>
      <point x="1183" y="1329"/>
      <point x="1183" y="1329" type="curve"/>
      <point x="1072" y="1196" type="line"/>
      <point x="1072" y="1196"/>
      <point x="970" y="1313"/>
      <point x="765" y="1313" type="curve" smooth="yes"/>
      <point x="613" y="1313"/>
      <point x="456" y="1263"/>
      <point x="442" y="1108" type="curve" smooth="yes"/>
      <point x="427" y="941"/>
      <point x="555" y="896"/>
      <point x="772" y="818" type="curve" smooth="yes"/>
      <point x="1005" y="735"/>
      <point x="1162" y="625"/>
      <point x="1141" y="382" type="curve" smooth="yes"/>
      <point x="1115" y="92"/>
      <point x="889" y="-23"/>
    </contour>
  </outline>
</glyph>
<glyph name="V" format="1">
  <advance width="1292"/>
  <unicode hex="0056"/>
  <outline>
    <contour>
      <point x="551" y="0" type="line"/>
      <point x="150" y="1456" type="line"/>
      <point x="366" y="1456" type="line"/>
      <point x="627" y="429" type="line"/>
      <point x="675" y="245" type="line"/>
      <point x="756" y="430" type="line"/>
      <point x="1193" y="1456" type="line"/>
      <point x="1398" y="1456" type="line"/>
      <point x="752" y="0" type="line"/>
    </contour>
  </outline>
</glyph>
<glyph name="W" format="1">
  <advance width="2000"/>
  <unicode hex="0057"/>
  <outline>
    <contour>
      <point x="422" y="0" type="line"/>
      <point x="157" y="1456" type="line"/>
      <point x="364" y="1456" type="line"/>
      <point x="533" y="454" type="line"/>
      <point x="568" y="226" type="line"/>
      <point x="646" y="437" type="line"/>
      <point x="1033" y="1456" type="line"/>
      <point x="1233" y="1456" type="line"/>
      <point x="1446" y="448" type="line"/>
      <point x="1490" y="232" type="line"/>
      <point x="1557" y="440" type="line"/>
      <point x="1894" y="1456" type="line"/>
      <point x="2094" y="1456" type="line"/>
      <point x="1582" y="0" type="line"/>
      <point x="1356" y="0" type="line"/>
      <point x="1108" y="1199" type="line"/>
      <point x="650" y="0" type="line"/>
    </contour>
  </outline>
</glyph>
<glyph name="bracketleft" format="1">
  <advance width="684"/>
  <unicode hex="005B"/>
  <outline>
    <contour>
      <point x="162" y="-239" type="line"/>
      <point x="310" y="1456" type="line"/>
      <point x="722" y="1456" type="line"/>
      <point x="709" y="1313" type="line"/>
      <point x="488" y="1313" type="line"/>
      <point x="365" y="-96" type="line"/>
      <point x="587" y="-96" type="line"/>
      <point x="574" y="-239" type="line"/>
    </contour>
  </outline>
</glyph>
<glyph name="bracketright" format="1">
  <advance width="675"/>
  <unicode hex="005D"/>
  <outline>
    <contour>
      <point x="79" y="-239" type="line"/>
      <point x="92" y="-96" type="line"/>
      <point x="311" y="-96" type="line"/>
      <point x="434" y="1313" type="line"/>
      <point x="214" y="1313" type="line"/>
      <point x="227" y="1456" type="line"/>
      <point x="638" y="1456" type="line"/>
      <point x="489" y="-239" type="line"/>
    </contour>
  </outline>
</glyph>
<glyph name="asciicircum" format="1">
  <advance width="1235"/>
  <unicode hex="005E"/>
  <outline>
    <contour>
      <point x="132" y="572" type="line"/>
      <point x="693" y="1456" type="line"/>
      <point x="812" y="1456" type="line"/>
      <point x="1225" y="572" type="line"/>
      <point x="1040" y="572" type="line"/>
      <point x="733" y="1250" type="line"/>
      <point x="319" y="572" type="line"/>
    </contour>
  </outline>
</glyph>
<glyph name="underscore" format="1">
  <advance width="946"/>
  <unicode hex="005F"/>
  <outline>
    <contour>
      <point x="-9" y="-197" type="line"/>
      <point x="4" y="-48" type="line"/>
      <point x="962" y="-48" type="line"/>
      <point x="949" y="-197" type="line"/>
    </contour>
  </outline>
</glyph>
<glyph name="b" format="1">
  <advance width="1264"/>
  <unicode hex="0062"/>
  <outline>
    <contour>
      <point x="695" y="-23" type="curve"/>
      <point x="511" y="-20"/>
      <point x="402" y="105"/>
      <point x="367" y="189" type="curve"/>
      <point x="352" y="0" type="line"/>
      <point x="158" y="0" type="line"/>
      <point x="158" y="0"/>
      <point x="183" y="200"/>
      <point x="189" y="271" type="curve" smooth="yes"/>
      <point x="295" y="1482" type="line"/>
      <point x="485" y="1482" type="line"/>
      <point x="427" y="852" type="line"/>
      <point x="485" y="964"/>
      <point x="625" y="1051"/>
      <point x="792" y="1051" type="curve" smooth="yes"/>
      <point x="1060" y="1051"/>
      <point x="1239" y="841"/>
      <point x="1212" y="528" type="curve" smooth="yes"/>
      <point x="1182" y="187"/>
      <point x="966" y="-30"/>
    </contour>
    <contour>
      <point x="685" y="130" type="curve" smooth="yes"/>
      <point x="874" y="127"/>
      <point x="994" y="291"/>
      <point x="1013" y="537" type="curve" smooth="yes"/>
      <point x="1029" y="750"/>
      <point x="937" y="897"/>
      <point x="748" y="897" type="curve" smooth="yes"/>
      <point x="550" y="897"/>
      <point x="415" y="748"/>
      <point x="396" y="521" type="curve" smooth="yes"/>
      <point x="376" y="282"/>
      <point x="482" y="133"/>
    </contour>
  </outline>
</glyph>
<glyph name="d" format="1">
  <advance width="1258"/>
  <unicode hex="0064"/>
  <outline>
    <contour>
      <point x="572" y="-23" type="curve" smooth="yes"/>
      <point x="303" y="-23"/>
      <point x="113" y="182"/>
      <point x="141" y="507" type="curve" smooth="yes"/>
      <point x="169" y="827"/>
      <point x="371" y="1051"/>
      <point x="673" y="1051" type="curve" smooth="yes"/>
      <point x="820" y="1051"/>
      <point x="934" y="983"/>
      <point x="977" y="886" type="curve"/>
      <point x="1028" y="1482" type="line"/>
      <point x="1218" y="1482" type="line"/>
      <point x="1112" y="262" type="line" smooth="yes"/>
      <point x="1107" y="200"/>
      <point x="1103" y="127"/>
      <point x="1096" y="0" type="curve"/>
      <point x="902" y="0" type="line"/>
      <point x="917" y="174" type="line"/>
      <point x="867" y="72"/>
      <point x="746" y="-23"/>
    </contour>
    <contour>
      <point x="610" y="130" type="curve" smooth="yes"/>
      <point x="808" y="130"/>
      <point x="928" y="296"/>
      <point x="949" y="536" type="curve" smooth="yes"/>
      <point x="968" y="750"/>
      <point x="872" y="897"/>
      <point x="680" y="897" type="curve" smooth="yes"/>
      <point x="486" y="897"/>
      <point x="362" y="740"/>
      <point x="342" y="510" type="curve" smooth="yes"/>
      <point x="323" y="287"/>
      <point x="417" y="130"/>
    </contour>
  </outline>
</glyph>
<glyph name="h" format="1">
  <advance width="1230"/>
  <unicode hex="0068"/>
  <outline>
    <contour>
      <point x="156" y="0" type="line"/>
      <point x="286" y="1482" type="line"/>
      <point x="476" y="1482" type="line"/>
      <point x="423" y="869" type="line"/>
      <point x="507" y="996"/>
      <point x="647" y="1051"/>
      <point x="780" y="1051" type="curve" smooth="yes"/>
      <point x="1041" y="1051"/>
      <point x="1134" y="850"/>
      <point x="1114" y="616" type="curve" smooth="yes"/>
      <point x="1060" y="0" type="line"/>
      <point x="869" y="0" type="line"/>
      <point x="923" y="612" type="line" smooth="yes"/>
      <point x="939" y="798"/>
      <point x="886" y="897"/>
      <point x="736" y="897" type="curve" smooth="yes"/>
      <point x="563" y="897"/>
      <point x="414" y="774"/>
      <point x="399" y="597" type="curve" smooth="yes"/>
      <point x="347" y="0" type="line"/>
    </contour>
  </outline>
</glyph>
<glyph name="i" format="1">
  <advance width="569"/>
  <unicode hex="0069"/>
  <outline>
    <contour>
      <point x="184" y="0" type="line"/>
      <point x="274" y="1026" type="line"/>
      <point x="462" y="1026" type="line"/>
      <point x="372" y="0" type="line"/>
    </contour>
    <contour>
      <point x="301" y="1282" type="line"/>
      <point x="317" y="1456" type="line"/>
      <point x="497" y="1456" type="line"/>
      <point x="482" y="1282" type="line"/>
    </contour>
  </outline>
</glyph>
<glyph name="j" format="1">
  <advance width="552"/>
  <unicode hex="006A"/>
  <outline>
    <contour>
      <point x="40" y="-390" type="curve" smooth="yes"/>
      <point x="-8" y="-390"/>
      <point x="-58" y="-387"/>
      <point x="-117" y="-372" type="curve"/>
      <point x="-88" y="-229" type="line"/>
      <point x="-47" y="-239"/>
      <point x="-11" y="-241"/>
      <point x="19" y="-241" type="curve" smooth="yes"/>
      <point x="153" y="-241"/>
      <point x="190" y="-154"/>
      <point x="207" y="45" type="curve" smooth="yes"/>
      <point x="293" y="1026" type="line"/>
      <point x="483" y="1026" type="line"/>
      <point x="394" y="8" type="line" smooth="yes"/>
      <point x="373" y="-230"/>
      <point x="282" y="-390"/>
    </contour>
    <contour>
      <point x="315" y="1282" type="line"/>
      <point x="331" y="1456" type="line"/>
      <point x="513" y="1456" type="line"/>
      <point x="498" y="1282" type="line"/>
    </contour>
  </outline>
</glyph>
<glyph name="k" format="1">
  <advance width="1089"/>
  <unicode hex="006B"/>
  <outline>
    <contour>
      <point x="157" y="0" type="line"/>
      <point x="287" y="1482" type="line"/>
      <point x="477" y="1482" type="line"/>
      <point x="400" y="597" type="line"/>
      <point x="869" y="1026" type="line"/>
      <point x="1129" y="1026" type="line"/>
      <point x="575" y="544" type="line"/>
      <point x="684" y="429"/>
      <point x="964" y="115"/>
      <point x="1073" y="0" type="curve"/>
      <point x="823" y="0" type="line"/>
      <point x="390" y="491" type="line"/>
      <point x="348" y="0" type="line"/>
    </contour>
  </outline>
</glyph>
<glyph name="m" format="1">
  <advance width="1872"/>
  <unicode hex="006D"/>
  <outline>
    <contour>
      <point x="167" y="0" type="line"/>
      <point x="232" y="741" type="line" smooth="yes"/>
      <point x="242" y="855"/>
      <point x="245" y="977"/>
      <point x="247" y="1026" type="curve"/>
      <point x="445" y="1026" type="line"/>
      <point x="425" y="842" type="line"/>
      <point x="495" y="966"/>
      <point x="642" y="1051"/>
      <point x="788" y="1051" type="curve" smooth="yes"/>
      <point x="929" y="1051"/>
      <point x="1035" y="975"/>
      <point x="1067" y="835" type="curve"/>
      <point x="1146" y="976"/>
      <point x="1308" y="1053"/>
      <point x="1463" y="1051" type="curve" smooth="yes"/>
      <point x="1685" y="1048"/>
      <point x="1790" y="891"/>
      <point x="1766" y="623" type="curve" smooth="yes"/>
      <point x="1710" y="0" type="line"/>
      <point x="1520" y="0" type="line"/>
      <point x="1569" y="556" type="line" smooth="yes"/>
      <point x="1585" y="739"/>
      <point x="1578" y="897"/>
      <point x="1397" y="897" type="curve" smooth="yes"/>
      <point x="1231" y="897"/>
      <point x="1105" y="764"/>
      <point x="1089" y="585" type="curve" smooth="yes"/>
      <point x="1038" y="0" type="line"/>
      <point x="848" y="0" type="line"/>
      <point x="903" y="632" type="line" smooth="yes"/>
      <point x="916" y="779"/>
      <point x="880" y="897"/>
      <point x="734" y="897" type="curve" smooth="yes"/>
      <point x="573" y="897"/>
      <point x="423" y="764"/>
      <point x="408" y="589" type="curve" smooth="yes"/>
      <point x="357" y="0" type="line"/>
    </contour>
  </outline>
</glyph>
<glyph name="n" format="1">
  <advance width="1229"/>
  <unicode hex="006E"/>
  <outline>
    <contour>
      <point x="167" y="0" type="line"/>
      <point x="231" y="735" type="line" smooth="yes"/>
      <point x="245" y="895"/>
      <point x="247" y="1026"/>
      <point x="247" y="1026" type="curve"/>
      <point x="440" y="1026" type="line"/>
      <point x="425" y="841" type="line"/>
      <point x="497" y="968"/>
      <point x="629" y="1051"/>
      <point x="794" y="1051" type="curve" smooth="yes"/>
      <point x="1063" y="1051"/>
      <point x="1147" y="874"/>
      <point x="1119" y="561" type="curve" smooth="yes"/>
      <point x="1070" y="0" type="line"/>
      <point x="879" y="0" type="line"/>
      <point x="927" y="553" type="line" smooth="yes"/>
      <point x="945" y="764"/>
      <point x="933" y="897"/>
      <point x="736" y="897" type="curve" smooth="yes"/>
      <point x="570" y="897"/>
      <point x="423" y="751"/>
      <point x="411" y="619" type="curve" smooth="yes"/>
      <point x="358" y="0" type="line"/>
    </contour>
  </outline>
</glyph>
<glyph name="p" format="1">
  <advance width="1254"/>
  <unicode hex="0070"/>
  <outline>
    <contour>
      <point x="138" y="-417" type="line"/>
      <point x="239" y="734" type="line" smooth="yes"/>
      <point x="245" y="806"/>
      <point x="250" y="924"/>
      <point x="253" y="1026" type="curve"/>
      <point x="450" y="1026" type="line"/>
      <point x="438" y="852" type="line"/>
      <point x="495" y="971"/>
      <point x="643" y="1050"/>
      <point x="794" y="1051" type="curve" smooth="yes"/>
      <point x="1075" y="1052"/>
      <point x="1234" y="834"/>
      <point x="1207" y="526" type="curve" smooth="yes"/>
      <point x="1179" y="207"/>
      <point x="983" y="-23"/>
      <point x="695" y="-23" type="curve" smooth="yes"/>
      <point x="546" y="-23"/>
      <point x="407" y="66"/>
      <point x="377" y="166" type="curve"/>
      <point x="326" y="-417" type="line"/>
    </contour>
    <contour>
      <point x="677" y="130" type="curve" smooth="yes"/>
      <point x="868" y="130"/>
      <point x="987" y="285"/>
      <point x="1007" y="514" type="curve" smooth="yes"/>
      <point x="1027" y="739"/>
      <point x="938" y="897"/>
      <point x="748" y="897" type="curve" smooth="yes"/>
      <point x="553" y="897"/>
      <point x="424" y="744"/>
      <point x="403" y="502" type="curve" smooth="yes"/>
      <point x="384" y="284"/>
      <point x="483" y="130"/>
    </contour>
  </outline>
</glyph>
<glyph name="q" format="1">
  <advance width="1245"/>
  <unicode hex="0071"/>
  <outline>
    <contour>
      <point x="857" y="-417" type="line"/>
      <point x="909" y="168" type="line"/>
      <point x="874" y="84"/>
      <point x="750" y="-29"/>
      <point x="560" y="-22" type="curve" smooth="yes"/>
      <point x="277" y="-12"/>
      <point x="117" y="208"/>
      <point x="143" y="513" type="curve" smooth="yes"/>
      <point x="170" y="830"/>
      <point x="375" y="1051"/>
      <point x="674" y="1051" type="curve" smooth="yes"/>
      <point x="850" y="1051"/>
      <point x="939" y="941"/>
      <point x="972" y="882" type="curve"/>
      <point x="987" y="1026" type="line"/>
      <point x="1180" y="1026" type="line"/>
      <point x="1176" y="993"/>
      <point x="1162" y="895"/>
      <point x="1152" y="787" type="curve" smooth="yes"/>
      <point x="1046" y="-417" type="line"/>
    </contour>
    <contour>
      <point x="607" y="130" type="curve" smooth="yes"/>
      <point x="801" y="130"/>
      <point x="924" y="295"/>
      <point x="944" y="533" type="curve" smooth="yes"/>
      <point x="963" y="749"/>
      <point x="869" y="897"/>
      <point x="681" y="897" type="curve" smooth="yes"/>
      <point x="487" y="897"/>
      <point x="363" y="740"/>
      <point x="343" y="510" type="curve" smooth="yes"/>
      <point x="324" y="287"/>
      <point x="415" y="130"/>
    </contour>
  </outline>
</glyph>
<glyph name="r" format="1">
  <advance width="809"/>
  <unicode hex="0072"/>
  <outline>
    <contour>
      <point x="165" y="0" type="line"/>
      <point x="233" y="775" type="line" smooth="yes"/>
      <point x="237" y="816"/>
      <point x="244" y="1026"/>
      <point x="244" y="1026" type="curve"/>
      <point x="440" y="1026" type="line"/>
      <point x="428" y="858" type="line"/>
      <point x="495" y="986"/>
      <point x="601" y="1051"/>
      <point x="715" y="1051" type="curve" smooth="yes"/>
      <point x="751" y="1051"/>
      <point x="788" y="1047"/>
      <point x="821" y="1038" type="curve"/>
      <point x="807" y="864" type="line"/>
      <point x="792" y="869"/>
      <point x="747" y="887"/>
      <point x="692" y="887" type="curve" smooth="yes"/>
      <point x="540" y="887"/>
      <point x="423" y="771"/>
      <point x="406" y="572" type="curve" smooth="yes"/>
      <point x="356" y="0" type="line"/>
    </contour>
  </outline>
</glyph>
<glyph name="u" format="1">
  <advance width="1219"/>
  <unicode hex="0075"/>
  <outline>
    <contour>
      <point x="530" y="-23" type="curve" smooth="yes"/>
      <point x="268" y="-18"/>
      <point x="168" y="177"/>
      <point x="186" y="392" type="curve" smooth="yes"/>
      <point x="241" y="1026" type="line"/>
      <point x="431" y="1026" type="line"/>
      <point x="376" y="391" type="line" smooth="yes"/>
      <point x="361" y="218"/>
      <point x="448" y="132"/>
      <point x="595" y="130" type="curve" smooth="yes"/>
      <point x="772" y="127"/>
      <point x="883" y="253"/>
      <point x="898" y="427" type="curve" smooth="yes"/>
      <point x="951" y="1026" type="line"/>
      <point x="1142" y="1026" type="line"/>
      <point x="1074" y="255" type="line" smooth="yes"/>
      <point x="1067" y="177"/>
      <point x="1062" y="54"/>
      <point x="1061" y="0" type="curve"/>
      <point x="864" y="0" type="line"/>
      <point x="877" y="185" type="line"/>
      <point x="847" y="111"/>
      <point x="742" y="-27"/>
    </contour>
  </outline>
</glyph>
<glyph name="w" format="1">
  <advance width="1621"/>
  <unicode hex="0077"/>
  <outline>
    <contour>
      <point x="358" y="0" type="line"/>
      <point x="108" y="1026" type="line"/>
      <point x="307" y="1026" type="line"/>
      <point x="453" y="343" type="line"/>
      <point x="479" y="220" type="line"/>
      <point x="527" y="333" type="line"/>
      <point x="826" y="1026" type="line"/>
      <point x="1006" y="1026" type="line"/>
      <point x="1167" y="334" type="line"/>
      <point x="1193" y="219" type="line"/>
      <point x="1237" y="333" type="line"/>
      <point x="1502" y="1026" type="line"/>
      <point x="1689" y="1026" type="line"/>
      <point x="1253" y="0" type="line"/>
      <point x="1079" y="0" type="line"/>
      <point x="919" y="672" type="line"/>
      <point x="886" y="807" type="line"/>
      <point x="827" y="674" type="line"/>
      <point x="534" y="0" type="line"/>
    </contour>
  </outline>
</glyph>
<glyph name="x" format="1">
  <advance width="1034"/>
  <unicode hex="0078"/>
  <outline>
    <contour>
      <point x="48" y="0" type="line"/>
      <point x="463" y="510" type="line"/>
      <point x="154" y="1026" type="line"/>
      <point x="356" y="1026" type="line"/>
      <point x="579" y="649" type="line"/>
      <point x="880" y="1026" type="line"/>
      <point x="1075" y="1026" type="line"/>
      <point x="672" y="526" type="line"/>
      <point x="997" y="0" type="line"/>
      <point x="796" y="0" type="line"/>
      <point x="558" y="386" type="line"/>
      <point x="247" y="0" type="line"/>
    </contour>
  </outline>
</glyph>
<glyph name="y" format="1">
  <advance width="1069"/>
  <unicode hex="0079"/>
  <outline>
    <contour>
      <point x="160" y="-434" type="curve"/>
      <point x="104" y="-304" type="line"/>
      <point x="288" y="-250"/>
      <point x="393" y="-136"/>
      <point x="434" y="-45" type="curve" smooth="yes"/>
      <point x="460" y="10" type="line"/>
      <point x="131" y="1026" type="line"/>
      <point x="329" y="1026" type="line"/>
      <point x="569" y="208" type="line"/>
      <point x="929" y="1026" type="line"/>
      <point x="1128" y="1026" type="line"/>
      <point x="611" y="-68" type="line"/>
      <point x="519" y="-261"/>
      <point x="361" y="-396"/>
    </contour>
  </outline>
</glyph>
<glyph name="braceleft" format="1">
  <advance width="722"/>
  <unicode hex="007B"/>
  <outline>
    <contour>
      <point x="617" y="-217" type="line"/>
      <point x="382" y="-212"/>
      <point x="244" y="-114"/>
      <point x="261" y="84" type="curve" smooth="yes"/>
      <point x="282" y="326" type="line" smooth="yes"/>
      <point x="294" y="459"/>
      <point x="251" y="551"/>
      <point x="116" y="562" type="curve"/>
      <point x="128" y="700" type="line"/>
      <point x="242" y="707"/>
      <point x="321" y="784"/>
      <point x="333" y="912" type="curve" smooth="yes"/>
      <point x="354" y="1150" type="line" smooth="yes"/>
      <point x="371" y="1345"/>
      <point x="496" y="1479"/>
      <point x="765" y="1479" type="curve"/>
      <point x="753" y="1331" type="line"/>
      <point x="637" y="1329"/>
      <point x="558" y="1271"/>
      <point x="546" y="1136" type="curve" smooth="yes"/>
      <point x="523" y="872" type="line" smooth="yes"/>
      <point x="511" y="737"/>
      <point x="413" y="660"/>
      <point x="309" y="628" type="curve"/>
      <point x="417" y="585"/>
      <point x="487" y="476"/>
      <point x="478" y="364" type="curve" smooth="yes"/>
      <point x="458" y="132" type="line" smooth="yes"/>
      <point x="444" y="-32"/>
      <point x="522" y="-70"/>
      <point x="629" y="-70" type="curve"/>
    </contour>
  </outline>
</glyph>
<glyph name="bar" format="1">
  <advance width="902"/>
  <unicode hex="007C"/>
  <outline>
    <contour>
      <point x="317" y="-480" type="line"/>
      <point x="493" y="1533" type="line"/>
      <point x="674" y="1533" type="line"/>
      <point x="498" y="-480" type="line"/>
    </contour>
  </outline>
</glyph>
<glyph name="braceright" format="1">
  <advance width="722"/>
  <unicode hex="007D"/>
  <outline>
    <contour>
      <point x="60" y="-220" type="curve"/>
      <point x="72" y="-72" type="line"/>
      <point x="188" y="-70"/>
      <point x="268" y="-12"/>
      <point x="280" y="123" type="curve" smooth="yes"/>
      <point x="303" y="387" type="line" smooth="yes"/>
      <point x="315" y="522"/>
      <point x="412" y="599"/>
      <point x="516" y="631" type="curve"/>
      <point x="408" y="674"/>
      <point x="339" y="783"/>
      <point x="348" y="895" type="curve" smooth="yes"/>
      <point x="368" y="1127" type="line" smooth="yes"/>
      <point x="382" y="1291"/>
      <point x="303" y="1329"/>
      <point x="196" y="1329" type="curve"/>
      <point x="209" y="1476" type="line"/>
      <point x="444" y="1471"/>
      <point x="581" y="1373"/>
      <point x="564" y="1175" type="curve" smooth="yes"/>
      <point x="543" y="933" type="line" smooth="yes"/>
      <point x="531" y="800"/>
      <point x="574" y="708"/>
      <point x="709" y="697" type="curve"/>
      <point x="698" y="559" type="line"/>
      <point x="584" y="552"/>
      <point x="504" y="474"/>
      <point x="492" y="346" type="curve" smooth="yes"/>
      <point x="472" y="109" type="line" smooth="yes"/>
      <point x="455" y="-86"/>
      <point x="329" y="-220"/>
    </contour>
  </outline>
</glyph>
<glyph name="asciitilde" format="1">
  <advance width="1274"/>
  <unicode hex="007E"/>
  <outline>
    <contour>
      <point x="281" y="370" type="curve"/>
      <point x="148" y="437" type="line"/>
      <point x="190" y="580"/>
      <point x="298" y="693"/>
      <point x="469" y="693" type="curve" smooth="yes"/>
      <point x="549" y="693"/>
      <point x="642" y="654"/>
      <point x="724" y="618" type="curve"/>
      <point x="775" y="598"/>
      <point x="864" y="556"/>
      <point x="905" y="556" type="curve" smooth="yes"/>
      <point x="982" y="556"/>
      <point x="1044" y="643"/>
      <point x="1074" y="734" type="curve"/>
      <point x="1221" y="687" type="line"/>
      <point x="1169" y="521"/>
      <point x="1056" y="400"/>
      <point x="892" y="400" type="curve" smooth="yes"/>
      <point x="831" y="400"/>
      <point x="751" y="435"/>
      <point x="672" y="471" type="curve"/>
      <point x="621" y="492"/>
      <point x="516" y="539"/>
      <point x="459" y="539" type="curve" smooth="yes"/>
      <point x="366" y="539"/>
      <point x="312" y="464"/>
    </contour>
  </outline>
</glyph>
<glyph name="uni007F" format="1">
  <advance width="1521"/>
  <unicode hex="007F"/>
  <outline>
    <contour>
      <point x="187" y="0" type="line"/>
      <point x="315" y="1456" type="line"/>
      <point x="1460" y="1456" type="line"/>
      <point x="1332" y="0" type="line"/>
    </contour>
    <contour>
      <point x="476" y="1330" type="line"/>
      <point x="370" y="124" type="line"/>
      <point x="1171" y="124" type="line"/>
      <point x="1277" y="1330" type="line"/>
    </contour>
  </outline>
</glyph>
<glyph name="sterling" format="1">
  <advance width="1235"/>
  <unicode hex="00A3"/>
  <outline>
    <contour>
      <point x="169" y="0" type="line"/>
      <point x="181" y="153" type="line"/>
      <point x="274" y="213"/>
      <point x="374" y="311"/>
      <point x="393" y="529" type="curve" smooth="yes"/>
      <point x="406" y="680" type="line"/>
      <point x="202" y="680" type="line"/>
      <point x="214" y="821" type="line"/>
      <point x="417" y="821" type="line"/>
      <point x="426" y="917" type="line" smooth="yes"/>
      <point x="453" y="1221"/>
      <point x="553" y="1461"/>
      <point x="914" y="1461" type="curve" smooth="yes"/>
      <point x="1051" y="1461"/>
      <point x="1146" y="1424"/>
      <point x="1203" y="1382" type="curve"/>
      <point x="1138" y="1240" type="line"/>
      <point x="1081" y="1276"/>
      <point x="1011" y="1301"/>
      <point x="908" y="1301" type="curve" smooth="yes"/>
      <point x="717" y="1301"/>
      <point x="643" y="1180"/>
      <point x="624" y="961" type="curve" smooth="yes"/>
      <point x="623" y="948"/>
      <point x="614" y="835"/>
      <point x="614" y="821" type="curve"/>
      <point x="939" y="821" type="line"/>
      <point x="926" y="680" type="line"/>
      <point x="605" y="680" type="line"/>
      <point x="605" y="675"/>
      <point x="593" y="534"/>
      <point x="592" y="527" type="curve" smooth="yes"/>
      <point x="576" y="371"/>
      <point x="505" y="217"/>
      <point x="451" y="160" type="curve"/>
      <point x="1111" y="160" type="line"/>
      <point x="1098" y="0" type="line"/>
    </contour>
  </outline>
</glyph>
<glyph name="currency" format="1">
  <advance width="1218"/>
  <unicode hex="00A4"/>
  <outline>
    <contour>
      <point x="1122" y="544" type="line"/>
      <point x="952" y="730" type="line"/>
      <point x="879" y="674"/>
      <point x="789" y="640"/>
      <point x="693" y="640" type="curve" smooth="yes"/>
      <point x="597" y="640"/>
      <point x="512" y="674"/>
      <point x="449" y="731" type="curve"/>
      <point x="245" y="544" type="line"/>
      <point x="199" y="595" type="line"/>
      <point x="402" y="782" type="line"/>
      <point x="353" y="848"/>
      <point x="327" y="932"/>
      <point x="335" y="1025" type="curve" smooth="yes"/>
      <point x="343" y="1122"/>
      <point x="387" y="1210"/>
      <point x="452" y="1277" type="curve"/>
      <point x="274" y="1472" type="line"/>
      <point x="330" y="1523" type="line"/>
      <point x="510" y="1327" type="line"/>
      <point x="581" y="1379"/>
      <point x="668" y="1410"/>
      <point x="760" y="1410" type="curve" smooth="yes"/>
      <point x="852" y="1410"/>
      <point x="933" y="1379"/>
      <point x="996" y="1328" type="curve"/>
      <point x="1208" y="1523" type="line"/>
      <point x="1254" y="1472" type="line"/>
      <point x="1044" y="1279" type="line"/>
      <point x="1098" y="1211"/>
      <point x="1127" y="1123"/>
      <point x="1118" y="1025" type="curve" smooth="yes"/>
      <point x="1110" y="932"/>
      <point x="1070" y="847"/>
      <point x="1008" y="780" type="curve"/>
      <point x="1178" y="595" type="line"/>
    </contour>
    <contour>
      <point x="698" y="711" type="curve" smooth="yes"/>
      <point x="872" y="711"/>
      <point x="1012" y="850"/>
      <point x="1027" y="1024" type="curve" smooth="yes"/>
      <point x="1042" y="1198"/>
      <point x="926" y="1332"/>
      <point x="752" y="1332" type="curve" smooth="yes"/>
      <point x="578" y="1332"/>
      <point x="438" y="1198"/>
      <point x="423" y="1024" type="curve" smooth="yes"/>
      <point x="408" y="850"/>
      <point x="524" y="711"/>
    </contour>
  </outline>
</glyph>
<glyph name="brokenbar" format="1">
  <advance width="500"/>
  <unicode hex="00A6"/>
  <outline>
    <contour>
      <point x="120" y="-480" type="line"/>
      <point x="196" y="400" type="line"/>
      <point x="379" y="400" type="line"/>
      <point x="302" y="-480" type="line"/>
    </contour>
    <contour>
      <point x="217" y="642" type="line"/>
      <point x="295" y="1533" type="line"/>
      <point x="477" y="1533" type="line"/>
      <point x="399" y="642" type="line"/>
    </contour>
  </outline>
</glyph>
<glyph name="copyright" format="1">
  <advance width="1829"/>
  <unicode hex="00A9"/>
  <outline>
    <contour>
      <point x="965" y="263" type="curve" smooth="yes"/>
      <point x="696" y="263"/>
      <point x="511" y="459"/>
      <point x="534" y="726" type="curve" smooth="yes"/>
      <point x="558" y="999"/>
      <point x="776" y="1190"/>
      <point x="1054" y="1190" type="curve" smooth="yes"/>
      <point x="1161" y="1190"/>
      <point x="1258" y="1158"/>
      <point x="1340" y="1092" type="curve"/>
      <point x="1291" y="961" type="line"/>
      <point x="1219" y="1018"/>
      <point x="1133" y="1046"/>
      <point x="1042" y="1046" type="curve" smooth="yes"/>
      <point x="853" y="1046"/>
      <point x="724" y="905"/>
      <point x="708" y="729" type="curve" smooth="yes"/>
      <point x="692" y="551"/>
      <point x="794" y="408"/>
      <point x="1004" y="408" type="curve" smooth="yes"/>
      <point x="1084" y="408"/>
      <point x="1167" y="431"/>
      <point x="1246" y="483" type="curve"/>
      <point x="1278" y="352" type="line"/>
      <point x="1183" y="292"/>
      <point x="1076" y="263"/>
    </contour>
    <contour>
      <point x="1047" y="1484" type="curve" smooth="yes"/>
      <point x="1496" y="1484"/>
      <point x="1801" y="1145"/>
      <point x="1764" y="727" type="curve" smooth="yes"/>
      <point x="1727" y="310"/>
      <point x="1364" y="-29"/>
      <point x="918" y="-29" type="curve" smooth="yes"/>
      <point x="467" y="-29"/>
      <point x="162" y="310"/>
      <point x="199" y="728" type="curve" smooth="yes"/>
      <point x="236" y="1146"/>
      <point x="601" y="1484"/>
    </contour>
    <contour>
      <point x="1039" y="1369" type="curve" smooth="yes"/>
      <point x="659" y="1369"/>
      <point x="364" y="1085"/>
      <point x="333" y="727" type="curve" smooth="yes"/>
      <point x="302" y="369"/>
      <point x="548" y="82"/>
      <point x="928" y="82" type="curve" smooth="yes"/>
      <point x="1306" y="82"/>
      <point x="1602" y="368"/>
      <point x="1633" y="725" type="curve" smooth="yes"/>
      <point x="1664" y="1084"/>
      <point x="1417" y="1369"/>
    </contour>
  </outline>
</glyph>
<glyph name="ordfeminine" format="1">
  <advance width="799"/>
  <unicode hex="00AA"/>
  <outline>
    <contour>
      <point x="410" y="761" type="curve" smooth="yes"/>
      <point x="519" y="761"/>
      <point x="601" y="805"/>
      <point x="651" y="921" type="curve"/>
      <point x="650" y="784" type="line"/>
      <point x="795" y="784" type="line"/>
      <point x="795" y="848"/>
      <point x="796" y="875"/>
      <point x="799" y="923" type="curve" smooth="yes"/>
      <point x="800" y="944"/>
      <point x="822" y="1180"/>
      <point x="826" y="1226" type="curve" smooth="yes"/>
      <point x="842" y="1413"/>
      <point x="719" y="1478"/>
      <point x="566" y="1478" type="curve" smooth="yes"/>
      <point x="414" y="1478"/>
      <point x="297" y="1429"/>
      <point x="269" y="1413" type="curve"/>
      <point x="305" y="1301" type="line"/>
      <point x="331" y="1311"/>
      <point x="437" y="1354"/>
      <point x="545" y="1354" type="curve" smooth="yes"/>
      <point x="643" y="1354"/>
      <point x="684" y="1314"/>
      <point x="673" y="1207" type="curve" smooth="yes"/>
      <point x="673" y="1205"/>
      <point x="670" y="1186"/>
      <point x="670" y="1183" type="curve"/>
      <point x="662" y="1183"/>
      <point x="586" y="1182"/>
      <point x="579" y="1182" type="curve" smooth="yes"/>
      <point x="282" y="1176"/>
      <point x="196" y="1087"/>
      <point x="185" y="963" type="curve" smooth="yes"/>
      <point x="174" y="833"/>
      <point x="273" y="761"/>
    </contour>
    <contour>
      <point x="446" y="868" type="curve" smooth="yes"/>
      <point x="373" y="868"/>
      <point x="336" y="902"/>
      <point x="341" y="964" type="curve" smooth="yes"/>
      <point x="351" y="1085"/>
      <point x="504" y="1088"/>
      <point x="663" y="1091" type="curve"/>
      <point x="663" y="1090"/>
      <point x="661" y="1075"/>
      <point x="661" y="1074" type="curve" smooth="yes"/>
      <point x="645" y="966"/>
      <point x="560" y="868"/>
    </contour>
  </outline>
</glyph>
<glyph name="guillemotleft" format="1">
  <advance width="1156"/>
  <unicode hex="00AB"/>
  <outline>
    <contour>
      <point x="437" y="167" type="line"/>
      <point x="199" y="541" type="line"/>
      <point x="509" y="917" type="line"/>
      <point x="701" y="917" type="line"/>
      <point x="399" y="541" type="line"/>
      <point x="625" y="167" type="line"/>
    </contour>
    <contour>
      <point x="825" y="167" type="line"/>
      <point x="587" y="541" type="line"/>
      <point x="897" y="917" type="line"/>
      <point x="1086" y="917" type="line"/>
      <point x="787" y="541" type="line"/>
      <point x="1013" y="167" type="line"/>
    </contour>
  </outline>
</glyph>
<glyph name="registered" format="1">
  <advance width="1829"/>
  <unicode hex="00AE"/>
  <outline>
    <contour>
      <point x="819" y="796" type="line"/>
      <point x="935" y="796" type="line" smooth="yes"/>
      <point x="1092" y="796"/>
      <point x="1188" y="809"/>
      <point x="1198" y="922" type="curve" smooth="yes"/>
      <point x="1209" y="1046"/>
      <point x="1142" y="1062"/>
      <point x="951" y="1062" type="curve" smooth="yes"/>
      <point x="843" y="1062" type="line"/>
    </contour>
    <contour>
      <point x="604" y="278" type="line"/>
      <point x="685" y="1200" type="line"/>
      <point x="968" y="1200" type="line" smooth="yes"/>
      <point x="1259" y="1200"/>
      <point x="1389" y="1105"/>
      <point x="1375" y="936" type="curve" smooth="yes"/>
      <point x="1364" y="817"/>
      <point x="1283" y="708"/>
      <point x="1100" y="682" type="curve"/>
      <point x="1169" y="621"/>
      <point x="1230" y="509"/>
      <point x="1347" y="278" type="curve"/>
      <point x="1146" y="278" type="line"/>
      <point x="1106" y="380"/>
      <point x="974" y="631"/>
      <point x="929" y="660" type="curve"/>
      <point x="809" y="660" type="line"/>
      <point x="775" y="278" type="line"/>
    </contour>
    <contour>
      <point x="1029" y="1369" type="curve" smooth="yes"/>
      <point x="649" y="1369"/>
      <point x="354" y="1085"/>
      <point x="323" y="727" type="curve" smooth="yes"/>
      <point x="292" y="369"/>
      <point x="538" y="82"/>
      <point x="918" y="82" type="curve" smooth="yes"/>
      <point x="1296" y="82"/>
      <point x="1592" y="368"/>
      <point x="1623" y="725" type="curve" smooth="yes"/>
      <point x="1654" y="1084"/>
      <point x="1407" y="1369"/>
    </contour>
    <contour>
      <point x="1037" y="1484" type="curve" smooth="yes"/>
      <point x="1486" y="1484"/>
      <point x="1791" y="1145"/>
      <point x="1754" y="727" type="curve" smooth="yes"/>
      <point x="1717" y="310"/>
      <point x="1354" y="-29"/>
      <point x="908" y="-29" type="curve" smooth="yes"/>
      <point x="457" y="-29"/>
      <point x="152" y="310"/>
      <point x="189" y="728" type="curve" smooth="yes"/>
      <point x="226" y="1146"/>
      <point x="591" y="1484"/>
    </contour>
  </outline>
</glyph>
<glyph name="degree" format="1">
  <advance width="844"/>
  <unicode hex="00B0"/>
  <outline>
    <contour>
      <point x="522" y="1005" type="curve" smooth="yes"/>
      <point x="634" y="1005"/>
      <point x="699" y="1092"/>
      <point x="705" y="1187" type="curve" smooth="yes"/>
      <point x="711" y="1278"/>
      <point x="656" y="1358"/>
      <point x="551" y="1358" type="curve" smooth="yes"/>
      <point x="441" y="1358"/>
      <point x="374" y="1272"/>
      <point x="368" y="1177" type="curve" smooth="yes"/>
      <point x="362" y="1086"/>
      <point x="415" y="1005"/>
    </contour>
    <contour>
      <point x="512" y="882" type="curve" smooth="yes"/>
      <point x="333" y="882"/>
      <point x="221" y="1015"/>
      <point x="230" y="1170" type="curve" smooth="yes"/>
      <point x="239" y="1332"/>
      <point x="375" y="1479"/>
      <point x="564" y="1479" type="curve" smooth="yes"/>
      <point x="743" y="1479"/>
      <point x="855" y="1346"/>
      <point x="846" y="1191" type="curve" smooth="yes"/>
      <point x="837" y="1029"/>
      <point x="700" y="882"/>
    </contour>
  </outline>
</glyph>
<glyph name="plusminus" format="1">
  <advance width="1235"/>
  <unicode hex="00B1"/>
  <outline>
    <contour>
      <point x="546" y="232" type="line"/>
      <point x="576" y="581" type="line"/>
      <point x="210" y="581" type="line"/>
      <point x="224" y="739" type="line"/>
      <point x="587" y="739" type="line"/>
      <point x="617" y="1091" type="line"/>
      <point x="793" y="1091" type="line"/>
      <point x="763" y="739" type="line"/>
      <point x="1127" y="739" type="line"/>
      <point x="1113" y="581" type="line"/>
      <point x="755" y="581" type="line"/>
      <point x="724" y="232" type="line"/>
    </contour>
    <contour>
      <point x="166" y="0" type="line"/>
      <point x="179" y="150" type="line"/>
      <point x="1080" y="150" type="line"/>
      <point x="1067" y="0" type="line"/>
    </contour>
  </outline>
</glyph>
<glyph name="uni00B2" format="1">
  <advance width="946"/>
  <unicode hex="00B2"/>
  <outline>
    <contour>
      <point x="256" y="638" type="line"/>
      <point x="267" y="767" type="line"/>
      <point x="567" y="1009"/>
      <point x="712" y="1145"/>
      <point x="721" y="1239" type="curve" smooth="yes"/>
      <point x="727" y="1305"/>
      <point x="680" y="1344"/>
      <point x="601" y="1344" type="curve" smooth="yes"/>
      <point x="523" y="1344"/>
      <point x="444" y="1300"/>
      <point x="387" y="1232" type="curve"/>
      <point x="319" y="1335" type="line"/>
      <point x="390" y="1426"/>
      <point x="502" y="1479"/>
      <point x="621" y="1479" type="curve" smooth="yes"/>
      <point x="774" y="1479"/>
      <point x="886" y="1394"/>
      <point x="873" y="1241" type="curve" smooth="yes"/>
      <point x="858" y="1073"/>
      <point x="688" y="934"/>
      <point x="483" y="777" type="curve"/>
      <point x="828" y="777" type="line"/>
      <point x="816" y="638" type="line"/>
    </contour>
  </outline>
</glyph>
<glyph name="acute" format="1">
  <advance width="607"/>
  <unicode hex="00B4"/>
  <outline>
    <contour>
      <point x="103" y="1171" type="line"/>
      <point x="369" y="1489" type="line"/>
      <point x="613" y="1489" type="line"/>
      <point x="263" y="1171" type="line"/>
    </contour>
  </outline>
</glyph>
<glyph name="paragraph" format="1">
  <advance width="1214"/>
  <unicode hex="00B6"/>
  <outline>
    <contour>
      <point x="438" y="-130" type="line"/>
      <point x="518" y="784" type="line"/>
      <point x="343" y="792"/>
      <point x="192" y="928"/>
      <point x="210" y="1132" type="curve" smooth="yes"/>
      <point x="232" y="1386"/>
      <point x="478" y="1456"/>
      <point x="755" y="1456" type="curve" smooth="yes"/>
      <point x="1174" y="1456" type="line"/>
      <point x="1161" y="1311" type="line"/>
      <point x="1061" y="1311" type="line"/>
      <point x="935" y="-130" type="line"/>
      <point x="784" y="-130" type="line"/>
      <point x="910" y="1311" type="line"/>
      <point x="728" y="1311" type="line"/>
      <point x="603" y="-130" type="line"/>
    </contour>
  </outline>
</glyph>
<glyph name="periodcentered" format="1">
  <advance width="444"/>
  <unicode hex="00B7"/>
  <outline>
    <contour>
      <point x="152" y="525" type="line"/>
      <point x="171" y="754" type="line"/>
      <point x="411" y="754" type="line"/>
      <point x="391" y="525" type="line"/>
    </contour>
  </outline>
</glyph>
<glyph name="ordmasculine" format="1">
  <advance width="886"/>
  <unicode hex="00BA"/>
  <outline>
    <contour>
      <point x="528" y="878" type="curve" smooth="yes"/>
      <point x="657" y="878"/>
      <point x="738" y="983"/>
      <point x="748" y="1105" type="curve" smooth="yes"/>
      <point x="759" y="1234"/>
      <point x="698" y="1338"/>
      <point x="567" y="1338" type="curve" smooth="yes"/>
      <point x="439" y="1338"/>
      <point x="357" y="1233"/>
      <point x="346" y="1109" type="curve" smooth="yes"/>
      <point x="335" y="981"/>
      <point x="392" y="878"/>
    </contour>
    <contour>
      <point x="518" y="750" type="curve" smooth="yes"/>
      <point x="274" y="750"/>
      <point x="160" y="906"/>
      <point x="178" y="1110" type="curve" smooth="yes"/>
      <point x="195" y="1309"/>
      <point x="344" y="1466"/>
      <point x="579" y="1466" type="curve" smooth="yes"/>
      <point x="816" y="1466"/>
      <point x="930" y="1307"/>
      <point x="913" y="1107" type="curve" smooth="yes"/>
      <point x="896" y="912"/>
      <point x="753" y="750"/>
    </contour>
  </outline>
</glyph>
<glyph name="onequarter" format="1">
  <advance width="2061"/>
  <unicode hex="00BC"/>
  <outline>
    <contour>
      <point x="1596" y="23" type="line"/>
      <point x="1613" y="206" type="line"/>
      <point x="1243" y="206" type="line"/>
      <point x="1252" y="311" type="line"/>
      <point x="1661" y="825" type="line"/>
      <point x="1813" y="825" type="line"/>
      <point x="1770" y="328" type="line"/>
      <point x="1880" y="328" type="line"/>
      <point x="1876" y="206" type="line"/>
      <point x="1757" y="206" type="line"/>
      <point x="1741" y="23" type="line"/>
    </contour>
    <contour>
      <point x="1418" y="328" type="curve"/>
      <point x="1621" y="328" type="line"/>
      <point x="1647" y="624" type="line"/>
      <point x="1576" y="533"/>
      <point x="1500" y="434"/>
    </contour>
    <contour>
      <point x="515" y="0" type="line"/>
      <point x="1540" y="1439" type="line"/>
      <point x="1720" y="1439" type="line"/>
      <point x="696" y="0" type="line"/>
    </contour>
    <contour>
      <point x="332" y="608" type="line"/>
      <point x="343" y="748" type="line"/>
      <point x="462" y="748" type="line"/>
      <point x="506" y="1250" type="line"/>
      <point x="463" y="1229"/>
      <point x="402" y="1205"/>
      <point x="351" y="1187" type="curve"/>
      <point x="365" y="1342" type="line"/>
      <point x="444" y="1367"/>
      <point x="499" y="1395"/>
      <point x="545" y="1421" type="curve"/>
      <point x="667" y="1438" type="line"/>
      <point x="607" y="746" type="line"/>
      <point x="726" y="746" type="line"/>
      <point x="715" y="608" type="line"/>
    </contour>
  </outline>
</glyph>
<glyph name="Eth" format="1">
  <advance width="1505"/>
  <unicode hex="00D0"/>
  <outline>
    <component base="D"/>
    <contour>
      <point x="106" y="812" type="line"/>
      <point x="709" y="812" type="line"/>
      <point x="696" y="669" type="line"/>
      <point x="93" y="669" type="line"/>
    </contour>
  </outline>
</glyph>
<glyph name="Oslash" format="1">
  <advance width="1663"/>
  <unicode hex="00D8"/>
  <outline>
    <component base="O"/>
    <contour>
      <point x="429" y="-130" type="line"/>
      <point x="332" y="-74" type="line"/>
      <point x="1331" y="1553" type="line"/>
      <point x="1428" y="1497" type="line"/>
    </contour>
  </outline>
</glyph>
<glyph name="Thorn" format="1">
  <advance width="1281"/>
  <unicode hex="00DE"/>
  <outline>
    <contour>
      <point x="156" y="0" type="line"/>
      <point x="283" y="1451" type="line"/>
      <point x="480" y="1451" type="line"/>
      <point x="460" y="1217" type="line"/>
      <point x="653" y="1217" type="line" smooth="yes"/>
      <point x="994" y="1217"/>
      <point x="1262" y="1140"/>
      <point x="1231" y="777" type="curve" smooth="yes"/>
      <point x="1204" y="470"/>
      <point x="937" y="341"/>
      <point x="619" y="341" type="curve" smooth="yes"/>
      <point x="382" y="341" type="line"/>
      <point x="352" y="0" type="line"/>
    </contour>
    <contour>
      <point x="397" y="510" type="line"/>
      <point x="651" y="510" type="line" smooth="yes"/>
      <point x="858" y="510"/>
      <point x="1004" y="591"/>
      <point x="1020" y="776" type="curve" smooth="yes"/>
      <point x="1039" y="996"/>
      <point x="891" y="1048"/>
      <point x="652" y="1048" type="curve" smooth="yes"/>
      <point x="444" y="1048" type="line"/>
    </contour>
  </outline>
</glyph>
<glyph name="germandbls" format="1">
  <advance width="1275"/>
  <unicode hex="00DF"/>
  <outline>
    <contour>
      <point x="795" y="-23" type="curve" smooth="yes"/>
      <point x="679" y="-23"/>
      <point x="560" y="29"/>
      <point x="478" y="146" type="curve"/>
      <point x="567" y="273" type="line"/>
      <point x="642" y="175"/>
      <point x="731" y="130"/>
      <point x="804" y="130" type="curve" smooth="yes"/>
      <point x="902" y="130"/>
      <point x="989" y="200"/>
      <point x="1000" y="326" type="curve" smooth="yes"/>
      <point x="1017" y="514"/>
      <point x="831" y="627"/>
      <point x="632" y="746" type="curve"/>
      <point x="660" y="890" type="line"/>
      <point x="785" y="943"/>
      <point x="903" y="1049"/>
      <point x="914" y="1176" type="curve" smooth="yes"/>
      <point x="923" y="1285"/>
      <point x="849" y="1351"/>
      <point x="731" y="1351" type="curve" smooth="yes"/>
      <point x="562" y="1351"/>
      <point x="471" y="1196"/>
      <point x="456" y="1026" type="curve" smooth="yes"/>
      <point x="441" y="851"/>
      <point x="384" y="172"/>
      <point x="369" y="0" type="curve"/>
      <point x="179" y="0" type="line"/>
      <point x="271" y="1060" type="line"/>
      <point x="295" y="1325"/>
      <point x="469" y="1501"/>
      <point x="744" y="1501" type="curve" smooth="yes"/>
      <point x="999" y="1501"/>
      <point x="1144" y="1357"/>
      <point x="1129" y="1182" type="curve" smooth="yes"/>
      <point x="1115" y="1029"/>
      <point x="948" y="898"/>
      <point x="831" y="845" type="curve" smooth="yes"/>
      <point x="809" y="835"/>
      <point x="790" y="826"/>
      <point x="777" y="817" type="curve"/>
      <point x="789" y="810"/>
      <point x="808" y="802"/>
      <point x="832" y="794" type="curve" smooth="yes"/>
      <point x="1034" y="727"/>
      <point x="1237" y="593"/>
      <point x="1215" y="345" type="curve" smooth="yes"/>
      <point x="1196" y="120"/>
      <point x="993" y="-23"/>
    </contour>
  </outline>
</glyph>
<glyph name="divide" format="1">
  <advance width="1304"/>
  <unicode hex="00F7"/>
  <outline>
    <contour>
      <point x="533" y="9" type="line"/>
      <point x="552" y="238" type="line"/>
      <point x="795" y="238" type="line"/>
      <point x="775" y="9" type="line"/>
    </contour>
    <contour>
      <point x="202" y="474" type="line"/>
      <point x="216" y="634" type="line"/>
      <point x="1191" y="634" type="line"/>
      <point x="1177" y="474" type="line"/>
    </contour>
    <contour>
      <point x="606" y="863" type="line"/>
      <point x="626" y="1092" type="line"/>
      <point x="868" y="1092" type="line"/>
      <point x="848" y="863" type="line"/>
    </contour>
  </outline>
</glyph>
<glyph name="oslash" format="1">
  <advance width="1252"/>
  <unicode hex="00F8"/>
  <outline>
    <component base="o"/>
    <contour>
      <point x="348" y="-236" type="line"/>
      <point x="262" y="-195" type="line"/>
      <point x="1025" y="1261" type="line"/>
      <point x="1113" y="1220" type="line"/>
    </contour>
  </outline>
</glyph>
<glyph name="dcroat" format="1">
  <advance width="1258"/>
  <unicode hex="0111"/>
  <outline>
    <component base="d"/>
    <contour>
      <point x="711" y="1225" type="line"/>
      <point x="724" y="1362" type="line"/>
      <point x="1336" y="1362" type="line"/>
      <point x="1323" y="1225" type="line"/>
    </contour>
  </outline>
</glyph>
<glyph name="Hbar" format="1">
  <advance width="1532"/>
  <unicode hex="0126"/>
  <outline>
    <component base="H"/>
    <contour>
      <point x="176" y="1138" type="line"/>
      <point x="189" y="1285" type="line"/>
      <point x="1539" y="1285" type="line"/>
      <point x="1526" y="1138" type="line"/>
    </contour>
  </outline>
</glyph>
<glyph name="kgreenlandic" format="1">
  <advance width="1099"/>
  <unicode hex="0138"/>
  <outline>
    <contour>
      <point x="154" y="0" type="line"/>
      <point x="244" y="1026" type="line"/>
      <point x="434" y="1026" type="line"/>
      <point x="395" y="579" type="line"/>
      <point x="866" y="1026" type="line"/>
      <point x="1126" y="1026" type="line"/>
      <point x="557" y="511" type="line"/>
      <point x="667" y="402"/>
      <point x="963" y="109"/>
      <point x="1073" y="0" type="curve"/>
      <point x="820" y="0" type="line"/>
      <point x="383" y="445" type="line"/>
      <point x="344" y="0" type="line"/>
    </contour>
  </outline>
</glyph>
<glyph name="Lslash" format="1">
  <advance width="1134"/>
  <unicode hex="0141"/>
  <outline>
    <component base="L"/>
    <contour>
      <point x="739" y="902" type="line"/>
      <point x="74" y="486" type="line"/>
      <point x="89" y="650" type="line"/>
      <point x="753" y="1066" type="line"/>
    </contour>
  </outline>
</glyph>
<glyph name="lslash" format="1">
  <advance width="519"/>
  <unicode hex="0142"/>
  <outline>
    <component base="l"/>
    <contour>
      <point x="60" y="601" type="line"/>
      <point x="75" y="763" type="line"/>
      <point x="616" y="1088" type="line"/>
      <point x="601" y="925" type="line"/>
    </contour>
  </outline>
</glyph>
<glyph name="Eng" format="1">
  <advance width="1574"/>
  <unicode hex="014A"/>
  <outline>
    <contour>
      <point x="514" y="-372" type="curve"/>
      <point x="551" y="-217" type="line"/>
      <point x="675" y="-251"/>
      <point x="781" y="-270"/>
      <point x="870" y="-270" type="curve" smooth="yes"/>
      <point x="1061" y="-270"/>
      <point x="1162" y="-194"/>
      <point x="1188" y="-4" type="curve" smooth="yes"/>
      <point x="1189" y="2"/>
      <point x="1193" y="53"/>
      <point x="1194" y="59" type="curve"/>
      <point x="559" y="1048" type="line"/>
      <point x="481" y="1187" type="line"/>
      <point x="378" y="0" type="line"/>
      <point x="187" y="0" type="line"/>
      <point x="314" y="1456" type="line"/>
      <point x="532" y="1456" type="line"/>
      <point x="1140" y="485" type="line"/>
      <point x="1221" y="345" type="line"/>
      <point x="1318" y="1456" type="line"/>
      <point x="1510" y="1456" type="line"/>
      <point x="1391" y="95" type="line" smooth="yes"/>
      <point x="1362" y="-243"/>
      <point x="1208" y="-420"/>
      <point x="862" y="-420" type="curve" smooth="yes"/>
      <point x="763" y="-420"/>
      <point x="647" y="-404"/>
    </contour>
  </outline>
</glyph>
<glyph name="eng" format="1">
  <advance width="1231"/>
  <unicode hex="014B"/>
  <outline>
    <contour>
      <point x="204" y="-350" type="curve"/>
      <point x="241" y="-194" type="line"/>
      <point x="365" y="-228"/>
      <point x="472" y="-247"/>
      <point x="561" y="-247" type="curve" smooth="yes"/>
      <point x="775" y="-247"/>
      <point x="869" y="-136"/>
      <point x="889" y="96" type="curve" smooth="yes"/>
      <point x="929" y="553" type="line" smooth="yes"/>
      <point x="948" y="770"/>
      <point x="925" y="897"/>
      <point x="736" y="897" type="curve" smooth="yes"/>
      <point x="570" y="897"/>
      <point x="422" y="749"/>
      <point x="412" y="640" type="curve" smooth="yes"/>
      <point x="356" y="0" type="line"/>
      <point x="166" y="0" type="line"/>
      <point x="230" y="735" type="line" smooth="yes"/>
      <point x="244" y="895"/>
      <point x="245" y="1026"/>
      <point x="245" y="1026" type="curve"/>
      <point x="441" y="1026" type="line"/>
      <point x="432" y="882" type="line"/>
      <point x="515" y="995"/>
      <point x="649" y="1051"/>
      <point x="785" y="1051" type="curve" smooth="yes"/>
      <point x="1062" y="1051"/>
      <point x="1146" y="874"/>
      <point x="1119" y="561" type="curve" smooth="yes"/>
      <point x="1082" y="129" type="line" smooth="yes"/>
      <point x="1053" y="-209"/>
      <point x="898" y="-397"/>
      <point x="552" y="-397" type="curve" smooth="yes"/>
      <point x="453" y="-397"/>
      <point x="337" y="-382"/>
    </contour>
  </outline>
</glyph>
<glyph name="Tbar" format="1">
  <advance width="1147"/>
  <unicode hex="0166"/>
  <outline>
    <component base="T"/>
    <contour>
      <point x="239" y="617" type="line"/>
      <point x="252" y="766" type="line"/>
      <point x="1031" y="766" type="line"/>
      <point x="1018" y="617" type="line"/>
    </contour>
  </outline>
</glyph>
<glyph name="florin" format="1">
  <advance width="1076"/>
  <unicode hex="0192"/>
  <outline>
    <contour>
      <point x="162" y="-248" type="curve" smooth="yes"/>
      <point x="142" y="-248"/>
      <point x="100" y="-244"/>
      <point x="56" y="-232" type="curve"/>
      <point x="78" y="-76" type="line"/>
      <point x="97" y="-83"/>
      <point x="130" y="-90"/>
      <point x="160" y="-90" type="curve" smooth="yes"/>
      <point x="243" y="-90"/>
      <point x="304" y="-18"/>
      <point x="335" y="109" type="curve"/>
      <point x="519" y="833" type="line"/>
      <point x="366" y="833" type="line"/>
      <point x="386" y="983" type="line"/>
      <point x="556" y="983" type="line"/>
      <point x="590" y="1134" type="line" smooth="yes"/>
      <point x="627" y="1300"/>
      <point x="701" y="1477"/>
      <point x="946" y="1477" type="curve" smooth="yes"/>
      <point x="1018" y="1477"/>
      <point x="1072" y="1458"/>
      <point x="1103" y="1450" type="curve"/>
      <point x="1084" y="1292" type="line"/>
      <point x="1059" y="1302"/>
      <point x="1010" y="1313"/>
      <point x="965" y="1313" type="curve" smooth="yes"/>
      <point x="869" y="1313"/>
      <point x="825" y="1261"/>
      <point x="801" y="1161" type="curve" smooth="yes"/>
      <point x="756" y="983" type="line"/>
      <point x="942" y="983" type="line"/>
      <point x="921" y="833" type="line"/>
      <point x="718" y="833" type="line"/>
      <point x="554" y="173" type="line" smooth="yes"/>
      <point x="493" y="-78"/>
      <point x="397" y="-248"/>
    </contour>
  </outline>
</glyph>
<glyph name="dotlessj" format="1">
  <advance width="534"/>
  <unicode hex="0237"/>
  <outline>
    <contour>
      <point x="30" y="-404" type="curve" smooth="yes"/>
      <point x="-18" y="-404"/>
      <point x="-69" y="-398"/>
      <point x="-128" y="-383" type="curve"/>
      <point x="-99" y="-239" type="line"/>
      <point x="-58" y="-249"/>
      <point x="-22" y="-255"/>
      <point x="8" y="-255" type="curve" smooth="yes"/>
      <point x="142" y="-255"/>
      <point x="180" y="-157"/>
      <point x="197" y="42" type="curve" smooth="yes"/>
      <point x="283" y="1026" type="line"/>
      <point x="473" y="1026" type="line"/>
      <point x="384" y="5" type="line" smooth="yes"/>
      <point x="363" y="-233"/>
      <point x="272" y="-404"/>
    </contour>
  </outline>
</glyph>
<glyph name="dotaccent" format="1">
  <advance width="524"/>
  <unicode hex="02D9"/>
  <outline>
    <contour>
      <point x="285" y="1243" type="line"/>
      <point x="299" y="1426" type="line"/>
      <point x="484" y="1426" type="line"/>
      <point x="470" y="1243" type="line"/>
    </contour>
  </outline>
</glyph>
<glyph name="tilde" format="1">
  <advance width="663"/>
  <unicode hex="02DC"/>
  <outline>
    <contour>
      <point x="116" y="1183" type="line"/>
      <point x="139" y="1319"/>
      <point x="219" y="1418"/>
      <point x="336" y="1418" type="curve" smooth="yes"/>
      <point x="437" y="1418"/>
      <point x="520" y="1337"/>
      <point x="591" y="1337" type="curve" smooth="yes"/>
      <point x="635" y="1337"/>
      <point x="662" y="1371"/>
      <point x="675" y="1432" type="curve"/>
      <point x="800" y="1432" type="line"/>
      <point x="776" y="1302"/>
      <point x="703" y="1192"/>
      <point x="582" y="1192" type="curve" smooth="yes"/>
      <point x="497" y="1192"/>
      <point x="396" y="1274"/>
      <point x="325" y="1274" type="curve" smooth="yes"/>
      <point x="281" y="1274"/>
      <point x="249" y="1246"/>
      <point x="237" y="1183" type="curve"/>
    </contour>
  </outline>
</glyph>
<glyph name="hungarumlaut" format="1">
  <advance width="969"/>
  <unicode hex="02DD"/>
  <outline>
    <contour>
      <point x="236" y="1156" type="line"/>
      <point x="476" y="1486" type="line"/>
      <point x="685" y="1486" type="line"/>
      <point x="372" y="1156" type="line"/>
    </contour>
    <contour>
      <point x="581" y="1156" type="line"/>
      <point x="836" y="1486" type="line"/>
      <point x="1051" y="1486" type="line"/>
      <point x="721" y="1156" type="line"/>
    </contour>
  </outline>
</glyph>
<glyph name="endash" format="1">
  <advance width="1085"/>
  <unicode hex="2013"/>
  <outline>
    <contour>
      <point x="33" y="478" type="line"/>
      <point x="47" y="636" type="line"/>
      <point x="1142" y="636" type="line"/>
      <point x="1128" y="478" type="line"/>
    </contour>
  </outline>
</glyph>
<glyph name="emdash" format="1">
  <advance width="2171"/>
  <unicode hex="2014"/>
  <outline>
    <contour>
      <point x="43" y="478" type="line"/>
      <point x="57" y="636" type="line"/>
      <point x="2202" y="636" type="line"/>
      <point x="2188" y="478" type="line"/>
    </contour>
  </outline>
</glyph>
<glyph name="uni2015" format="1">
  <advance width="4096"/>
  <unicode hex="2015"/>
  <outline>
    <contour>
      <point x="76" y="478" type="line"/>
      <point x="89" y="631" type="line"/>
      <point x="4063" y="631" type="line"/>
      <point x="4050" y="478" type="line"/>
    </contour>
  </outline>
</glyph>
<glyph name="quoteleft" format="1">
  <advance width="613"/>
  <unicode hex="2018"/>
  <outline>
    <contour>
      <point x="251" y="1004" type="line"/>
      <point x="396" y="1456" type="line"/>
      <point x="607" y="1456" type="line"/>
      <point x="410" y="1004" type="line"/>
    </contour>
  </outline>
</glyph>
<glyph name="quoteright" format="1">
  <advance width="489"/>
  <unicode hex="2019"/>
  <outline>
    <contour>
      <point x="178" y="1005" type="line"/>
      <point x="324" y="1456" type="line"/>
      <point x="533" y="1456" type="line"/>
      <point x="336" y="1005" type="line"/>
    </contour>
  </outline>
</glyph>
<glyph name="quotedblbase" format="1">
  <advance width="1024"/>
  <unicode hex="201E"/>
  <outline>
    <contour>
      <point x="141" y="-233" type="line"/>
      <point x="287" y="220" type="line"/>
      <point x="497" y="220" type="line"/>
      <point x="302" y="-233" type="line"/>
    </contour>
    <contour>
      <point x="492" y="-233" type="line"/>
      <point x="638" y="220" type="line"/>
      <point x="848" y="220" type="line"/>
      <point x="650" y="-233" type="line"/>
    </contour>
  </outline>
</glyph>
<glyph name="guilsinglleft" format="1">
  <advance width="642"/>
  <unicode hex="2039"/>
  <outline>
    <contour>
      <point x="349" y="167" type="line"/>
      <point x="111" y="541" type="line"/>
      <point x="420" y="917" type="line"/>
      <point x="610" y="917" type="line"/>
      <point x="311" y="541" type="line"/>
      <point x="536" y="167" type="line"/>
    </contour>
  </outline>
</glyph>
<glyph name="fraction" format="1">
  <advance width="1175"/>
  <unicode hex="2044"/>
  <outline>
    <contour>
      <point x="53" y="0" type="line"/>
      <point x="1080" y="1456" type="line"/>
      <point x="1260" y="1456" type="line"/>
      <point x="235" y="0" type="line"/>
    </contour>
  </outline>
</glyph>
<glyph name="trademark" format="1">
  <advance width="1869"/>
  <unicode hex="2122"/>
  <outline>
    <contour>
      <point x="877" y="671" type="line"/>
      <point x="944" y="1441" type="line"/>
      <point x="1153" y="1441" type="line"/>
      <point x="1328" y="922" type="line"/>
      <point x="1606" y="1441" type="line"/>
      <point x="1805" y="1441" type="line"/>
      <point x="1738" y="671" type="line"/>
      <point x="1595" y="671" type="line"/>
      <point x="1641" y="1204" type="line"/>
      <point x="1348" y="671" type="line"/>
      <point x="1249" y="671" type="line"/>
      <point x="1065" y="1200" type="line"/>
      <point x="1018" y="671" type="line"/>
    </contour>
    <contour>
      <point x="392" y="671" type="line"/>
      <point x="449" y="1319" type="line"/>
      <point x="199" y="1319" type="line"/>
      <point x="209" y="1441" type="line"/>
      <point x="861" y="1441" type="line"/>
      <point x="849" y="1319" type="line"/>
      <point x="594" y="1319" type="line"/>
      <point x="538" y="671" type="line"/>
    </contour>
  </outline>
</glyph>
<glyph name="summation" format="1">
  <advance width="1264"/>
  <unicode hex="2211"/>
  <outline>
    <contour>
      <point x="51" y="-279" type="line"/>
      <point x="61" y="-175" type="line"/>
      <point x="751" y="595" type="line"/>
      <point x="216" y="1351" type="line"/>
      <point x="226" y="1456" type="line"/>
      <point x="1328" y="1456" type="line"/>
      <point x="1313" y="1295" type="line"/>
      <point x="493" y="1295" type="line"/>
      <point x="984" y="602" type="line"/>
      <point x="345" y="-111" type="line"/>
      <point x="1234" y="-111" type="line"/>
      <point x="1220" y="-279" type="line"/>
    </contour>
  </outline>
</glyph>
<glyph name="radical" format="1">
  <advance width="1314"/>
  <unicode hex="221A"/>
  <outline>
    <contour>
      <point x="542" y="-150" type="line"/>
      <point x="290" y="673" type="line"/>
      <point x="289" y="673"/>
      <point x="120" y="644"/>
      <point x="120" y="644" type="curve"/>
      <point x="104" y="777" type="line"/>
      <point x="426" y="831" type="line"/>
      <point x="629" y="109" type="line"/>
      <point x="1152" y="1583" type="line"/>
      <point x="1312" y="1583" type="line"/>
      <point x="698" y="-150" type="line"/>
    </contour>
  </outline>
</glyph>
<glyph name="integral" format="1">
  <advance width="748"/>
  <unicode hex="222B"/>
  <outline>
    <contour>
      <point x="140" y="-403" type="curve" smooth="yes"/>
      <point x="85" y="-403"/>
      <point x="49" y="-394"/>
      <point x="-5" y="-381" type="curve"/>
      <point x="7" y="-229" type="line"/>
      <point x="42" y="-244"/>
      <point x="90" y="-249"/>
      <point x="125" y="-249" type="curve" smooth="yes"/>
      <point x="245" y="-249"/>
      <point x="274" y="-179"/>
      <point x="285" y="-48" type="curve" smooth="yes"/>
      <point x="401" y="1277" type="line" smooth="yes"/>
      <point x="420" y="1494"/>
      <point x="512" y="1655"/>
      <point x="740" y="1655" type="curve" smooth="yes"/>
      <point x="791" y="1655"/>
      <point x="855" y="1641"/>
      <point x="886" y="1633" type="curve"/>
      <point x="874" y="1480" type="line"/>
      <point x="837" y="1497"/>
      <point x="791" y="1501"/>
      <point x="756" y="1501" type="curve" smooth="yes"/>
      <point x="634" y="1501"/>
      <point x="604" y="1431"/>
      <point x="593" y="1300" type="curve" smooth="yes"/>
      <point x="478" y="-25" type="line" smooth="yes"/>
      <point x="459" y="-242"/>
      <point x="368" y="-403"/>
    </contour>
  </outline>
</glyph>
<glyph name="approxequal" format="1">
  <advance width="1351"/>
  <unicode hex="2248"/>
  <outline>
    <contour>
      <point x="322" y="251" type="curve"/>
      <point x="184" y="287" type="line"/>
      <point x="241" y="454"/>
      <point x="359" y="557"/>
      <point x="516" y="557" type="curve" smooth="yes"/>
      <point x="609" y="557"/>
      <point x="693" y="514"/>
      <point x="768" y="471" type="curve"/>
      <point x="838" y="436"/>
      <point x="896" y="395"/>
      <point x="944" y="395" type="curve" smooth="yes"/>
      <point x="1019" y="395"/>
      <point x="1071" y="456"/>
      <point x="1118" y="561" type="curve"/>
      <point x="1251" y="526" type="line"/>
      <point x="1200" y="365"/>
      <point x="1097" y="256"/>
      <point x="927" y="256" type="curve" smooth="yes"/>
      <point x="846" y="256"/>
      <point x="768" y="290"/>
      <point x="667" y="353" type="curve"/>
      <point x="607" y="388"/>
      <point x="551" y="416"/>
      <point x="502" y="416" type="curve" smooth="yes"/>
      <point x="415" y="416"/>
      <point x="359" y="352"/>
    </contour>
    <contour>
      <point x="354" y="617" type="curve"/>
      <point x="214" y="649" type="line"/>
      <point x="266" y="816"/>
      <point x="387" y="920"/>
      <point x="546" y="920" type="curve" smooth="yes"/>
      <point x="633" y="920"/>
      <point x="704" y="887"/>
      <point x="790" y="833" type="curve" smooth="yes"/>
      <point x="869" y="784"/>
      <point x="929" y="758"/>
      <point x="974" y="758" type="curve" smooth="yes"/>
      <point x="1048" y="758"/>
      <point x="1102" y="817"/>
      <point x="1148" y="923" type="curve"/>
      <point x="1281" y="890" type="line"/>
      <point x="1231" y="727"/>
      <point x="1125" y="620"/>
      <point x="957" y="620" type="curve" smooth="yes"/>
      <point x="870" y="620"/>
      <point x="796" y="652"/>
      <point x="694" y="716" type="curve" smooth="yes"/>
      <point x="634" y="753"/>
      <point x="581" y="781"/>
      <point x="530" y="781" type="curve" smooth="yes"/>
      <point x="446" y="781"/>
      <point x="392" y="715"/>
    </contour>
  </outline>
</glyph>
<glyph name="uniFB01" format="1">
  <advance width="1214"/>
  <unicode hex="FB01"/>
  <outline>
    <contour>
      <point x="1126" y="1288" type="line"/>
      <point x="1142" y="1462" type="line"/>
      <point x="964" y="1462" type="line"/>
      <point x="948" y="1288" type="line"/>
    </contour>
    <contour>
      <point x="428" y="0" type="line"/>
      <point x="506" y="901" type="line"/>
      <point x="904" y="901" type="line"/>
      <point x="826" y="0" type="line"/>
      <point x="1016" y="0" type="line"/>
      <point x="1106" y="1026" type="line"/>
      <point x="517" y="1026" type="line"/>
      <point x="526" y="1124" type="line"/>
      <point x="542" y="1300"/>
      <point x="557" y="1332"/>
      <point x="755" y="1334" type="curve" smooth="yes"/>
      <point x="799" y="1334" type="line"/>
      <point x="812" y="1482" type="line"/>
      <point x="777" y="1482" type="line"/>
      <point x="415" y="1479"/>
      <point x="357" y="1373"/>
      <point x="334" y="1109" type="curve" smooth="yes"/>
      <point x="327" y="1026" type="line"/>
      <point x="143" y="1026" type="line"/>
      <point x="132" y="901" type="line"/>
      <point x="316" y="901" type="line"/>
      <point x="238" y="0" type="line"/>
    </contour>
  </outline>
</glyph>
<glyph name="uniFB02" format="1">
  <advance width="1277"/>
  <unicode hex="FB02"/>
  <outline>
    <contour>
      <point x="519" y="901" type="line"/>
      <point x="440" y="0" type="line"/>
      <point x="250" y="0" type="line"/>
      <point x="329" y="901" type="line"/>
      <point x="132" y="901" type="line"/>
      <point x="143" y="1026" type="line"/>
      <point x="340" y="1026" type="line"/>
      <point x="345" y="1092" type="line"/>
      <point x="368" y="1357"/>
      <point x="462" y="1465"/>
      <point x="834" y="1465" type="curve" smooth="yes"/>
      <point x="1235" y="1465" type="line"/>
      <point x="1107" y="0" type="line"/>
      <point x="918" y="0" type="line"/>
      <point x="1033" y="1317" type="line"/>
      <point x="837" y="1317" type="line" smooth="yes"/>
      <point x="597" y="1317"/>
      <point x="551" y="1272"/>
      <point x="538" y="1124" type="curve"/>
      <point x="530" y="1026" type="line"/>
      <point x="773" y="1026" type="line"/>
      <point x="762" y="901" type="line"/>
    </contour>
  </outline>
</glyph>
<glyph name="f_j" format="1">
  <advance width="1253"/>
  <outline>
    <contour>
      <point x="428" y="0" type="line"/>
      <point x="506" y="901" type="line"/>
      <point x="980.542" y="901" type="line"/>
      <point x="905.5" y="45" type="line" smooth="yes"/>
      <point x="888.5" y="-154"/>
      <point x="851.5" y="-241"/>
      <point x="717.5" y="-241" type="curve" smooth="yes"/>
      <point x="687.5" y="-241"/>
      <point x="651.5" y="-239"/>
      <point x="610.5" y="-229" type="curve"/>
      <point x="581.5" y="-372" type="line"/>
      <point x="640.5" y="-387"/>
      <point x="690.5" y="-390"/>
      <point x="738.5" y="-390" type="curve" smooth="yes"/>
      <point x="980.5" y="-390"/>
      <point x="1071.5" y="-230"/>
      <point x="1092.5" y="8" type="curve" smooth="yes"/>
      <point x="1181.5" y="1026" type="line"/>
      <point x="517" y="1026" type="line"/>
      <point x="526" y="1124" type="line" smooth="yes"/>
      <point x="542" y="1300"/>
      <point x="557" y="1332"/>
      <point x="755" y="1334" type="curve" smooth="yes"/>
      <point x="799" y="1334" type="line"/>
      <point x="812" y="1482" type="line"/>
      <point x="777" y="1482" type="line"/>
      <point x="415" y="1479"/>
      <point x="357" y="1373"/>
      <point x="334" y="1109" type="curve" smooth="yes"/>
      <point x="327" y="1026" type="line"/>
      <point x="143" y="1026" type="line"/>
      <point x="132" y="901" type="line"/>
      <point x="316" y="901" type="line"/>
      <point x="238" y="0" type="line"/>
    </contour>
    <contour>
      <point x="1198" y="1288" type="line"/>
      <point x="1214" y="1462" type="line"/>
      <point x="1036" y="1462" type="line"/>
      <point x="1020" y="1288" type="line"/>
    </contour>
  </outline>
</glyph>
